<svg width="31" height="34" viewBox="0 0 31 34" fill="none" xmlns="http://www.w3.org/2000/svg">
<path d="M12.9667 5.89637H15.9149V9.82728H18.2176C21.9328 9.82728 25.6253 8.38575 28.4025 5.60849L29.0974 4.91364L28.4026 4.21878C25.7756 1.59169 22.1452 0 18.2176 0H15.9149V3.93091H12.9667V1.96546H1.17401V7.86182H12.9667V5.89637ZM17.8804 1.96546C18.0796 1.99926 22.3553 1.59418 26.2596 4.91364C24.0152 6.82183 21.1964 7.86182 18.2177 7.86182H17.8804V1.96546ZM7.07038 5.89637H3.13947V3.93091H7.07038V5.89637ZM11.0013 5.89637H9.03583V3.93091H11.0013V5.89637Z" fill="white"/>
<rect x="14" y="15.7825" width="10" height="6" stroke="white" stroke-width="2"/>
<rect x="1" y="27.7825" width="12" height="5" stroke="white" stroke-width="2"/>
<rect x="13" y="27.7825" width="11" height="5" stroke="white" stroke-width="2"/>
<rect x="9" y="22.7825" width="11" height="5" stroke="white" stroke-width="2"/>
<rect x="20" y="22.7825" width="10" height="5" stroke="white" stroke-width="2"/>
</svg>
