<svg width="26" height="39" fill="none" xmlns="http://www.w3.org/2000/svg"><mask id="a" fill="#fff"><path d="M0 2a2 2 0 012-2h22a2 2 0 012 2v19.215a2 2 0 01-2 2h-5.531c-1.212 0-2.32.729-2.603 1.908-.381 1.592-.604 3.78.6 4.932 2.034 1.945 2.005 4.98 0 6.84-1.943 1.803-4.989 1.803-6.933 0-2.004-1.86-2.033-4.895 0-6.84 1.205-1.153.982-3.34.6-4.932-.282-1.179-1.39-1.908-2.602-1.908H2a2 2 0 01-2-2V2z"/></mask><path d="M9.533 36.895l1.36-1.467-1.36 1.467zm6.934 0l-1.36-1.467 1.36 1.467zM2 2h22v-4H2v4zm22 0v19.215h4V2h-4zM2 21.215V2h-4v19.215h4zm5.531 0H2v4h5.531v-4zm16.469 0h-5.531v4H24v-4zm-8.893 14.213a3.12 3.12 0 01-4.213 0l-2.72 2.933c2.71 2.515 6.942 2.515 9.653 0l-2.72-2.933zm-4.213 0c-1.147-1.063-1.193-2.766.022-3.928l-2.765-2.89c-2.852 2.728-2.84 7.096.022 9.75l2.72-2.932zm.022-3.928c1.121-1.073 1.449-2.5 1.51-3.64.061-1.161-.135-2.316-.347-3.203l-3.89.932c.169.705.275 1.44.242 2.059-.034.638-.197.882-.28.962l2.765 2.89zm3.005-6.843c-.212.887-.408 2.042-.346 3.202.06 1.142.388 2.568 1.51 3.64l2.764-2.89c-.083-.08-.246-.323-.28-.962-.033-.619.073-1.353.242-2.058l-3.89-.932zm1.163 6.843c1.215 1.162 1.17 2.864.023 3.928l2.72 2.933c2.862-2.655 2.874-7.023.022-9.751l-2.765 2.89zm3.385-10.285c-1.963 0-4.011 1.204-4.548 3.442l3.89.932a.387.387 0 01.167-.232.857.857 0 01.491-.142v-4zm-10.938 4c.211 0 .382.064.491.142.1.07.147.148.167.232l3.89-.932c-.537-2.238-2.585-3.442-4.548-3.442v4zm-9.531-4a4 4 0 004 4v-4h-4zm26 0v4a4 4 0 004-4h-4zM24 2h4a4 4 0 00-4-4v4zM2-2a4 4 0 00-4 4h4v-4z" fill="#fff" mask="url(#a)"/><path stroke="#fff" stroke-width="2" d="M0 17.24h26M0 12.095h26"/></svg>