<svg width="41" height="40" fill="none" xmlns="http://www.w3.org/2000/svg"><path d="M3.003 31.216a1 1 0 010-1.415l22.05-22.05a1 1 0 01.547-.28l-.16-.984.16.984 7.956-1.293a1 1 0 011.148 1.147l.95.155-.95-.155-1.293 7.956a1 1 0 01-.28.547l-22.05 22.05a1 1 0 01-1.415 0l-6.663-6.662zm5.704-5.923l8.136 8.135" stroke="#fff" stroke-width="2"/><path d="M23.255 9.492l1.355 2.711 3.051 1.017.678 2.712 3.051 1.695m-19.52 4.342l-8.034-8.104a2 2 0 01.006-2.823l5.244-5.244a2 2 0 012.883.056l7.696 8.32m.251 15.8l6.632 6.598a2 2 0 002.825-.004l5.265-5.265a2 2 0 00-.033-2.86l-6.73-6.428M8.26 12.293l-3.151 3.151m23.317 17.015l-3.151 3.151M10.15 16.704l-1.89 1.891m15.755 11.974l-1.891 1.89" stroke="#fff" stroke-width="2"/></svg>