<svg width="37" height="37" fill="none" xmlns="http://www.w3.org/2000/svg"><mask id="a" fill="#fff"><path fill-rule="evenodd" clip-rule="evenodd" d="M15 1a1 1 0 011-1h5a1 1 0 011 1v3.715c0 .45.301.84.726.985.62.212 1.222.47 1.799.768.406.21.906.151 1.23-.172L28.4 3.651a1 1 0 011.414 0l3.535 3.535a1 1 0 010 1.414l-2.702 2.703c-.32.32-.382.812-.178 1.215.286.566.535 1.155.745 1.764.146.421.534.718.98.718H36a1 1 0 011 1v5a1 1 0 01-1 1h-3.5a1.05 1.05 0 00-1 .789 14.226 14.226 0 01-.732 2.063c-.176.395-.105.861.201 1.167l2.38 2.38a1 1 0 010 1.415l-3.535 3.535a1 1 0 01-1.415 0l-2-2a1.053 1.053 0 00-1.278-.146c-.756.442-1.557.811-2.395 1.097a1.053 1.053 0 00-.726.985V36a1 1 0 01-1 1h-5a1 1 0 01-1-1v-2.715c0-.45-.301-.84-.726-.985a13.184 13.184 0 01-2.395-1.097c-.412-.24-.94-.192-1.277.145L8.6 33.35a1 1 0 01-1.415 0L3.65 29.815a1 1 0 010-1.415l2.38-2.38c.306-.305.377-.772.201-1.167-.294-.662-.54-1.35-.732-2.063a1.05 1.05 0 00-1-.789H1a1 1 0 01-1-1v-5a1 1 0 011-1h3.806c.446 0 .834-.297.98-.718.21-.609.46-1.198.745-1.764a1.049 1.049 0 00-.178-1.215L3.65 8.6a1 1 0 010-1.414l3.535-3.535a1 1 0 011.414 0l2.646 2.645c.323.323.823.383 1.23.172a13.146 13.146 0 011.798-.768c.425-.146.726-.536.726-.985V1z"/></mask><path d="M28.4 3.65l1.414 1.415L28.4 3.65zm1.414 0l1.414-1.413-1.414 1.414zm3.535 3.536l1.415-1.414-1.415 1.414zm0 1.414l1.415 1.415L33.349 8.6zm0 21.214l-1.414-1.415 1.414 1.415zm-3.535 3.535l1.414 1.414-1.414-1.414zm-1.415 0l-1.414 1.414L28.4 33.35zm-19.798 0l-1.415-1.414 1.415 1.414zm-1.415 0l1.415-1.414-1.415 1.414zm-3.535-3.535l-1.414 1.414 1.414-1.414zm0-1.415l-1.414-1.414L3.65 28.4zm0-19.799l-1.414 1.415L3.65 8.6zm0-1.414L5.065 8.6 3.65 7.186zm3.535-3.535L5.772 2.236l1.414 1.415zm1.414 0l1.415-1.415L8.6 3.651zM5.5 22.789l-1.93.522 1.93-.522zm6.379 8.414l-1.01 1.727 1.01-1.727zm-1.277.145l-1.415-1.414 1.415 1.414zM6.03 26.02l1.414 1.415L6.03 26.02zm.201-1.167l1.828-.812-1.828.812zM22.726 32.3l.647 1.893-.647-1.893zm3.028-26.004L24.34 4.882l1.414 1.414zM14.274 32.3l-.647 1.893.647-1.893zM5.786 14.282l-1.89-.653 1.89.653zM31.5 22.789l1.93.522-1.93-.522zm-5.102 8.56l1.415-1.415-1.415 1.414zm-1.277-.146l-1.01-1.726 1.01 1.726zm5.526-19.9l-1.414-1.415 1.414 1.415zm-.178 1.215l1.785-.901-1.785.901zM22.726 5.7l-.646 1.892.646-1.892zM16-2a3 3 0 00-3 3h4a1 1 0 01-1 1v-4zm5 0h-5v4h5v-4zm3 3a3 3 0 00-3-3v4a1 1 0 01-1-1h4zm0 3.715V1h-4v3.715h4zm-1.92 2.877c.525.18 1.035.398 1.525.652l1.84-3.552a15.148 15.148 0 00-2.072-.885L22.08 7.592zm4.905-5.355L24.34 4.882l2.83 2.828 2.645-2.645-2.829-2.829zm4.243 0a3 3 0 00-4.243 0l2.829 2.828a1 1 0 01-1.414 0l2.828-2.829zm3.535 3.535l-3.535-3.536-2.828 2.83L31.935 8.6l2.829-2.828zm0 4.243a3 3 0 000-4.243L31.936 8.6a1 1 0 010-1.414l2.829 2.829zm-2.702 2.702l2.703-2.702-2.829-2.829-2.702 2.702 2.828 2.829zm-3.378.702c.246.486.46.992.64 1.515l3.782-1.305a16.193 16.193 0 00-.85-2.012l-3.572 1.802zM36 13h-3.806v4H36v-4zm3 3a3 3 0 00-3-3v4a1 1 0 01-1-1h4zm0 5v-5h-4v5h4zm-3 3a3 3 0 003-3h-4a1 1 0 011-1v4zm-3.5 0H36v-4h-3.5v4zm-2.93-1.733a12.228 12.228 0 01-.63 1.773l3.655 1.624c.336-.755.616-1.541.835-2.353l-3.86-1.044zm5.193 4.718l-2.38-2.38-2.828 2.829 2.38 2.38 2.828-2.829zm0 4.243a3 3 0 000-4.243l-2.828 2.829a1 1 0 010-1.415l2.828 2.829zm-3.535 3.535l3.535-3.535-2.828-2.829-3.536 3.536 2.829 2.828zm-4.243 0a3 3 0 004.243 0l-2.829-2.828a1 1 0 011.415 0l-2.829 2.828zm-2-2l2 2 2.829-2.828-2.001-2.001-2.829 2.828zm-.873-3.286c-.643.376-1.323.688-2.032.93l1.293 3.786c.965-.33 1.888-.755 2.758-1.263l-2.02-3.453zM24 36v-2.715h-4V36h4zm-3 3a3 3 0 003-3h-4a1 1 0 011-1v4zm-5 0h5v-4h-5v4zm-3-3a3 3 0 003 3v-4a1 1 0 011 1h-4zm0-2.715V36h4v-2.715h-4zm1.92-2.877a11.181 11.181 0 01-2.031-.931l-2.02 3.453c.87.508 1.793.933 2.758 1.263l1.293-3.785zm-4.905 4.355l2-2-2.828-2.829-2 2.001 2.828 2.828zm-4.243 0a3 3 0 004.243 0l-2.829-2.828a1 1 0 011.415 0l-2.829 2.828zm-3.535-3.535l3.535 3.535 2.829-2.828-3.536-3.536-2.828 2.829zm0-4.243a3 3 0 000 4.243l2.828-2.829a1 1 0 010 1.415l-2.828-2.829zm2.38-2.38l-2.38 2.38 2.828 2.829 2.38-2.38-2.828-2.829zm3.443-.565a12.232 12.232 0 01-.63-1.773L3.57 23.31c.22.812.5 1.598.835 2.353L8.06 24.04zM1 24h3.5v-4H1v4zm-3-3a3 3 0 003 3v-4a1 1 0 011 1h-4zm0-5v5h4v-5h-4zm3-3a3 3 0 00-3 3h4a1 1 0 01-1 1v-4zm3.806 0H1v4h3.806v-4zm2.87 1.934c.181-.523.395-1.029.64-1.515l-3.57-1.802a15.962 15.962 0 00-.85 2.012l3.78 1.305zm-5.44-4.92l2.703 2.703 2.828-2.829-2.702-2.702-2.829 2.829zm0-4.242a3 3 0 000 4.243l2.829-2.829a1 1 0 010 1.414L2.236 5.772zm3.536-3.536L2.236 5.772 5.066 8.6 8.6 5.065 5.772 2.236zm4.243 0a3 3 0 00-4.243 0L8.6 5.065a1 1 0 01-1.414 0l2.829-2.829zm2.645 2.646l-2.645-2.646-2.829 2.829L9.832 7.71l2.828-2.828zm.735 3.362c.49-.254 1-.472 1.525-.652l-1.293-3.785a15.13 15.13 0 00-2.072.885l1.84 3.552zM13 1v3.715h4V1h-4zm1.92 6.592c1.17-.4 2.08-1.506 2.08-2.877h-4c0-.473.308-.799.627-.908l1.293 3.785zM8.317 13.42c.563-1.117.424-2.556-.55-3.53L4.94 12.716a.952.952 0 01-.193-1.1l3.57 1.802zm-.886 8.848C7.089 21.004 5.942 20 4.499 20v4a.951.951 0 01-.93-.689l3.862-1.044zm5.458 7.21c-1.134-.663-2.67-.575-3.702.457l2.829 2.828a.947.947 0 01-1.147.168l2.02-3.453zm16.434-14.543c.404 1.17 1.511 2.066 2.871 2.066v-4a.95.95 0 01.91.63l-3.78 1.304zm-21.878 12.5c.932-.933 1.102-2.297.615-3.394l-3.655 1.624a.953.953 0 01.212-1.059l2.828 2.829zM9.832 7.71c.987.987 2.445 1.113 3.563.534l-1.84-3.552a.949.949 0 011.105.19L9.832 7.71zM22.08 30.408c-1.17.4-2.08 1.505-2.08 2.877h4a.948.948 0 01-.627.908l-1.293-3.785zm1.525-22.164c1.118.58 2.576.454 3.564-.534L24.34 4.882a.949.949 0 011.105-.19l-1.84 3.552zM17 33.285c0-1.371-.91-2.478-2.08-2.877l-1.293 3.785a.948.948 0 01-.627-.908h4zM4.806 17c1.36 0 2.467-.897 2.87-2.066l-3.78-1.305a.953.953 0 01.91-.629v4zm24.134 7.04c-.487 1.097-.317 2.462.615 3.394l2.828-2.829c.32.32.348.753.212 1.059L28.94 24.04zM32.5 20c-1.442 0-2.59 1.004-2.93 2.267l3.86 1.044a.951.951 0 01-.93.689v-4zm-4.687 9.934c-1.032-1.032-2.568-1.12-3.701-.457l2.019 3.453a.947.947 0 01-1.147-.168l2.829-2.828zm1.42-20.046c-.974.975-1.113 2.414-.55 3.531l3.572-1.802a.952.952 0 01-.194 1.1l-2.828-2.829zM20 4.715c0 1.371.91 2.478 2.08 2.877l1.293-3.785a.948.948 0 01.627.908h-4z" fill="#fff" mask="url(#a)"/><circle cx="18.5" cy="18.5" r="6.5" stroke="#fff" stroke-width="2"/></svg>